# xmcd
#
# Track frame offsets:
#	150
#	21319
#	33491
#	48348
#	70107
#	84237
#	100364
#	116098
#	128423
#	142197
#	153361
#	165751
#	179222
#	193970
#	208794
#
# Disc length: 3047 seconds
#
# Revision: 0
# Processed by: cddbd v1.5.2PL0 Copyright (c) Steve Scherf et al.
# Submitted via: audiograbber 1.83.01
#
DISCID=d30be50f
DTITLE=Top Tunes - TTCP 1-03
DYEAR=1900
DGENRE=
TTITLE0=Dixie Chicks - Goodbye Earl
TTITLE1=Donna Fargo  - Happiest Gril In The Workd
TTITLE2=Jeannie Riley - Harper Valley Pta
TTITLE3=Brad Paisely - He Didnt Have To Be
TTITLE4=George Jones - He Stoppe Loving Her Today
TTITLE5=Randy Travis - He Walked On Water
TTITLE6=Reba Mctire - Heart Wont Lie
TTITLE7=Conway Twitty - Hello Darlin
TTITLE8=Hank Williams - Hey Good Looking
TTITLE9=Hank Williams - I Can't Help It If I'm Still In Love With You
TTITLE10=Tammy Wynette - I Don't Want To Play House
TTITLE11=Patsy Cline - I Fall To Pieces
TTITLE12=Eddie Rabbitt - I Love The Rainy Night
TTITLE13=Tg Sheppard - I Loved 'Em Every  One
TTITLE14=John M. Montgomery - I Swear
EXTD=
EXTT0=
EXTT1=
EXTT2=
EXTT3=
EXTT4=
EXTT5=
EXTT6=
EXTT7=
EXTT8=
EXTT9=
EXTT10=
EXTT11=
EXTT12=
EXTT13=
EXTT14=
PLAYORDER=
